<svg xmlns="http://www.w3.org/2000/svg" width="256" height="256" viewBox="0 0 100 100"><path fill="#b13131" d="M22.14 42.26L22.14 42.26Q19.09 42.26 16.48 43.30Q13.87 44.33 11.98 46.36Q10.09 48.38 9.01 51.40Q7.93 54.41 7.93 58.28L7.93 58.28Q7.93 66.02 11.80 70.12Q15.66 74.21 22.14 74.21L22.14 74.21Q25.93 74.21 28.45 73.18Q30.96 72.14 32.94 70.79L32.94 70.79Q33.94 71.33 34.56 72.14Q35.19 72.95 35.19 74.12L35.19 74.12Q35.19 75.38 34.20 76.46Q33.22 77.54 31.46 78.35Q29.71 79.16 27.32 79.66Q24.93 80.15 22.14 80.15L22.14 80.15Q17.46 80.15 13.51 78.80Q9.55 77.45 6.67 74.75Q3.79 72.05 2.17 67.95Q0.55 63.86 0.55 58.28L0.55 58.28Q0.55 52.79 2.26 48.70Q3.97 44.60 6.85 41.81Q9.73 39.02 13.64 37.63Q17.55 36.23 21.96 36.23L21.96 36.23Q24.75 36.23 27.14 36.73Q29.53 37.22 31.24 38.12Q32.94 39.02 33.89 40.15Q34.83 41.27 34.83 42.44L34.83 42.44Q34.83 43.52 34.20 44.33Q33.58 45.14 32.58 45.59L32.58 45.59Q30.61 44.24 28.26 43.25Q25.93 42.26 22.14 42.26ZM60.75 74.30L60.75 74.30Q64.53 74.30 67.01 73.54Q69.48 72.77 70.56 72.05L70.56 72.05L70.56 59L59.41 60.17Q54.73 60.62 52.48 62.29Q50.23 63.95 50.23 67.19L50.23 67.19Q50.23 70.61 52.84 72.45Q55.45 74.30 60.75 74.30ZM60.66 36.23L60.66 36.23Q68.50 36.23 73.09 39.74Q77.67 43.25 77.67 50.81L77.67 50.81L77.67 72.14Q77.67 74.12 76.91 75.16Q76.15 76.19 74.62 77.09L74.62 77.09Q72.45 78.35 68.90 79.30Q65.34 80.24 60.75 80.24L60.75 80.24Q52.30 80.24 47.66 76.91Q43.02 73.58 43.02 67.28L43.02 67.28Q43.02 61.34 46.90 58.33Q50.77 55.31 57.78 54.59L57.78 54.59L70.56 53.33L70.56 50.81Q70.56 46.31 67.86 44.24Q65.16 42.17 60.58 42.17L60.58 42.17Q56.80 42.17 53.47 43.25Q50.14 44.33 47.52 45.68L47.52 45.68Q46.80 45.05 46.22 44.24Q45.63 43.43 45.63 42.44L45.63 42.44Q45.63 41.18 46.27 40.37Q46.90 39.56 48.25 38.84L48.25 38.84Q50.67 37.58 53.83 36.91Q56.98 36.23 60.66 36.23ZM98.47 40.28L98.47 78.80Q98.02 78.98 97.11 79.20Q96.22 79.43 95.13 79.43L95.13 79.43Q91.27 79.43 91.27 76.19L91.27 76.19L91.27 37.58Q91.72 37.40 92.66 37.18Q93.60 36.95 94.69 36.95L94.69 36.95Q98.47 36.95 98.47 40.28L98.47 40.28ZM90.19 24.26L90.19 24.26Q90.19 22.37 91.49 21.07Q92.80 19.76 94.86 19.76L94.86 19.76Q96.94 19.76 98.19 21.07Q99.45 22.37 99.45 24.26L99.45 24.26Q99.45 26.15 98.19 27.46Q96.94 28.76 94.86 28.76L94.86 28.76Q92.80 28.76 91.49 27.46Q90.19 26.15 90.19 24.26Z"></path></svg>